<svg width="77" height="151" viewBox="0 0 77 151" fill="none" xmlns="http://www.w3.org/2000/svg">
<path d="M69.0362 135.745V123.066H49.3729C39.5121 121.212 29.5201 121.212 19.6593 123.066H0V135.785C0 135.932 0 136.08 0 136.227C0.320481 144.13 16.0348 150.429 35.0987 150.294C54.1627 150.16 69.3567 143.649 69.0362 135.745Z" fill="#FDAC3A"/>
<path d="M34.5223 137.617C53.5884 137.617 69.0446 131.21 69.0446 123.306C69.0446 115.402 53.5884 108.995 34.5223 108.995C15.4561 108.995 0 115.402 0 123.306C0 131.21 15.4561 137.617 34.5223 137.617Z" fill="#FDDB3A"/>
<g style="mix-blend-mode:multiply">
<path d="M34.4854 133.144C26.6048 133.144 19.1103 131.928 13.3859 129.72C10.8716 128.75 8.8267 127.643 7.29669 126.408C6.90764 126.1 6.58446 125.65 6.36086 125.106C6.13726 124.562 6.02144 123.943 6.02549 123.314C6.0228 122.677 6.14153 122.049 6.36934 121.498C6.59715 120.947 6.92572 120.491 7.32084 120.179C8.80793 118.99 10.7845 117.913 13.1981 116.958C18.8032 114.759 26.1797 113.519 33.9719 113.464C42.0523 113.4 49.7519 114.627 55.6051 116.886C58.1019 117.847 60.1401 118.963 61.6634 120.17C62.0578 120.482 62.386 120.936 62.6145 121.486C62.8429 122.036 62.9633 122.661 62.9633 123.298C62.9633 123.935 62.8429 124.561 62.6145 125.111C62.386 125.661 62.0578 126.115 61.6634 126.427C60.1777 127.617 58.1998 128.693 55.7861 129.637C50.181 131.837 42.8046 133.078 35.0137 133.133L34.4854 133.144ZM34.5069 115.245H33.9705C26.2897 115.298 19.0298 116.516 13.5307 118.672C11.2176 119.581 9.33626 120.608 7.94035 121.726C7.74025 121.884 7.57381 122.115 7.45829 122.394C7.34276 122.674 7.28235 122.991 7.28329 123.314C7.28123 123.628 7.33899 123.937 7.45054 124.209C7.5621 124.481 7.72337 124.705 7.91755 124.859C9.351 126.013 11.3007 127.069 13.713 128C19.4589 130.215 27.0366 131.424 35.007 131.358C42.6892 131.305 49.9477 130.087 55.4469 127.928C57.7613 127.02 59.6413 125.992 61.0372 124.876C61.2362 124.719 61.4018 124.489 61.5171 124.212C61.6323 123.935 61.6931 123.619 61.6931 123.297C61.6931 122.976 61.6323 122.66 61.5171 122.383C61.4018 122.105 61.2362 121.876 61.0372 121.719C59.6051 120.574 57.6648 119.526 55.2712 118.603C49.6527 116.436 42.2776 115.245 34.5069 115.245Z" fill="#FDDB3A"/>
</g>
<path d="M69.0362 120.568V107.889H49.3729C39.5121 106.035 29.5201 106.035 19.6593 107.889H0V120.608C0 120.755 0 120.903 0 121.05C0.320481 128.951 16.0348 135.252 35.0987 135.117C54.1627 134.983 69.3567 128.47 69.0362 120.568Z" fill="#FDAC3A"/>
<path d="M34.5223 122.437C53.5884 122.437 69.0446 116.03 69.0446 108.126C69.0446 100.222 53.5884 93.8149 34.5223 93.8149C15.4561 93.8149 0 100.222 0 108.126C0 116.03 15.4561 122.437 34.5223 122.437Z" fill="#FDDB3A"/>
<g style="mix-blend-mode:multiply">
<path d="M34.4854 117.971C26.6048 117.971 19.1103 116.754 13.3859 114.547C10.8716 113.576 8.8267 112.469 7.29669 111.234C6.90764 110.926 6.58446 110.476 6.36086 109.932C6.13726 109.388 6.02144 108.769 6.02549 108.141C6.02266 107.503 6.14133 106.876 6.36916 106.324C6.59698 105.773 6.92562 105.318 7.32084 105.006C8.80793 103.816 10.7845 102.74 13.1981 101.784C18.8032 99.5858 26.1797 98.345 33.9719 98.2902C42.0523 98.226 49.7519 99.4536 55.6051 101.712C58.1019 102.674 60.1401 103.78 61.6634 104.996C62.0578 105.308 62.386 105.763 62.6145 106.312C62.8429 106.862 62.9633 107.488 62.9633 108.125C62.9633 108.762 62.8429 109.387 62.6145 109.937C62.386 110.487 62.0578 110.941 61.6634 111.253C60.1777 112.443 58.1998 113.519 55.7861 114.464C50.181 116.664 42.8046 117.904 35.0137 117.959L34.4854 117.971ZM34.5069 100.071H33.9705C26.2897 100.126 19.0298 101.344 13.5307 103.501C11.2176 104.409 9.33626 105.436 7.94035 106.554C7.74016 106.713 7.57365 106.943 7.45811 107.222C7.34257 107.502 7.28221 107.819 7.28329 108.143C7.28123 108.457 7.33899 108.765 7.45054 109.037C7.5621 109.309 7.72337 109.533 7.91755 109.687C9.351 110.839 11.3007 111.897 13.713 112.826C19.4589 115.043 27.0366 116.252 35.007 116.186C42.6892 116.133 49.9477 114.915 55.4469 112.756C57.7613 111.848 59.6413 110.821 61.0372 109.704C61.2362 109.547 61.4018 109.318 61.5171 109.04C61.6323 108.763 61.6931 108.447 61.6931 108.126C61.6931 107.804 61.6323 107.489 61.5171 107.211C61.4018 106.934 61.2362 106.704 61.0372 106.547C59.6051 105.402 57.6648 104.354 55.2712 103.431C49.6527 101.263 42.2776 100.071 34.5069 100.071Z" fill="#FDDB3A"/>
</g>
<path d="M69.0362 105.003V92.323H49.3729C39.5121 90.4695 29.5201 90.4695 19.6593 92.323H0V105.04C0 105.188 0 105.335 0 105.482C0.320481 113.386 16.0348 119.684 35.0987 119.55C54.1627 119.416 69.3567 112.904 69.0362 105.003Z" fill="#FDAC3A"/>
<path d="M34.5223 106.869C53.5884 106.869 69.0446 100.461 69.0446 92.5575C69.0446 84.6535 53.5884 78.2461 34.5223 78.2461C15.4561 78.2461 0 84.6535 0 92.5575C0 100.461 15.4561 106.869 34.5223 106.869Z" fill="#FDDB3A"/>
<g style="mix-blend-mode:multiply">
<path d="M34.4854 102.406C26.6048 102.406 19.1103 101.19 13.3859 98.9823C10.8716 98.0116 8.82669 96.9049 7.29669 95.6717C6.90763 95.3631 6.58447 94.9131 6.36089 94.3687C6.1373 93.8242 6.02148 93.2053 6.02549 92.5764C6.0228 91.9386 6.14152 91.3113 6.36933 90.76C6.59714 90.2086 6.92572 89.7533 7.32084 89.4415C8.80793 88.2517 10.7845 87.1753 13.1981 86.2216C18.8032 84.0214 26.181 82.7807 33.9719 82.7259C42.055 82.6673 49.7506 83.8892 55.6051 86.1479C58.1019 87.111 60.1401 88.2253 61.6634 89.432C62.0578 89.744 62.386 90.1983 62.6145 90.7481C62.8429 91.2979 62.9633 91.9234 62.9633 92.5604C62.9633 93.1974 62.8429 93.8229 62.6145 94.3727C62.386 94.9225 62.0578 95.3767 61.6634 95.6887C60.1777 96.8785 58.1998 97.955 55.7861 98.8992C50.181 101.099 42.8046 102.34 35.0137 102.395L34.4854 102.406ZM34.5069 84.5068H33.9705C26.2897 84.5597 19.0312 85.7778 13.5307 87.9363C11.2176 88.8428 9.33626 89.8702 7.94035 90.9882C7.74025 91.1464 7.57381 91.3771 7.45828 91.6563C7.34276 91.9356 7.28235 92.2533 7.28329 92.5764C7.28122 92.8903 7.33898 93.1992 7.45054 93.4709C7.5621 93.7426 7.72337 93.9672 7.91754 94.1213C9.351 95.2752 11.3007 96.3308 13.713 97.2619C19.4589 99.4771 27.0366 100.686 35.007 100.62C42.6892 100.567 49.9477 99.3487 55.4469 97.1901C57.7613 96.2817 59.6413 95.2563 61.0372 94.1383C61.2362 93.9808 61.4018 93.7515 61.5171 93.474C61.6323 93.1966 61.6931 92.8809 61.6931 92.5595C61.6931 92.238 61.6323 91.9223 61.5171 91.6449C61.4018 91.3674 61.2362 91.1382 61.0372 90.9806C59.6051 89.8362 57.6648 88.7881 55.2712 87.8646C49.6527 85.7003 42.2776 84.5049 34.5069 84.5049V84.5068Z" fill="#FDDB3A"/>
</g>
<path d="M69.0362 89.4306V76.7586H49.3729C39.5121 74.905 29.5201 74.905 19.6593 76.7586H0V89.4778C0 89.6232 0 89.7705 0 89.9197C0.320481 97.8213 16.0348 104.12 35.0987 103.987C54.1627 103.855 69.3567 97.3322 69.0362 89.4306Z" fill="#FDAC3A"/>
<path d="M34.5223 91.2992C53.5884 91.2992 69.0446 84.8918 69.0446 76.9879C69.0446 69.0839 53.5884 62.6765 34.5223 62.6765C15.4561 62.6765 0 69.0839 0 76.9879C0 84.8918 15.4561 91.2992 34.5223 91.2992Z" fill="#FDDB3A"/>
<g style="mix-blend-mode:multiply">
<path d="M34.4853 86.8331C26.6047 86.8331 19.1103 85.6168 13.3858 83.4092C10.8716 82.4403 8.82668 81.3318 7.29669 80.0986C6.90762 79.7899 6.58447 79.3399 6.36089 78.7955C6.1373 78.2511 6.02148 77.6322 6.02549 77.0033C6.02294 76.3654 6.14173 75.7383 6.36953 75.187C6.59732 74.6357 6.92581 74.1803 7.32083 73.8683C8.80792 72.6785 10.7844 71.6021 13.1981 70.6578C18.8032 68.4577 26.1796 67.2169 33.9717 67.1622C42.0548 67.0999 49.7504 68.3274 55.6049 70.5842C58.1017 71.5473 60.1399 72.6615 61.6632 73.8702C62.0572 74.1823 62.3852 74.6365 62.6134 75.1861C62.8416 75.7357 62.9619 76.3609 62.9619 76.9976C62.9619 77.6343 62.8416 78.2595 62.6134 78.8091C62.3852 79.3587 62.0572 79.8129 61.6632 80.125C60.1774 81.3148 58.2009 82.3913 55.7859 83.3468C50.1808 85.5451 42.8044 86.7877 35.0136 86.8406L34.4853 86.8331ZM34.5068 68.9336H33.9704C26.2896 68.9865 19.0298 70.2046 13.5307 72.3632C11.2176 73.2715 9.33624 74.2989 7.94034 75.415C7.74043 75.5736 7.57415 75.8043 7.45866 76.0835C7.34316 76.3627 7.28263 76.6802 7.28328 77.0033C7.28122 77.3171 7.33898 77.626 7.45054 77.8977C7.56209 78.1694 7.72337 78.394 7.91754 78.5481C9.35099 79.702 11.3007 80.7577 13.713 81.6887C19.4589 83.9058 27.0365 85.1126 35.0069 85.0465C42.6891 84.9936 49.9475 83.7755 55.4467 81.6188C57.7611 80.7105 59.6424 79.6831 61.037 78.5651C61.236 78.4076 61.4016 78.1783 61.5169 77.9009C61.6321 77.6234 61.6929 77.3077 61.6929 76.9863C61.6929 76.6648 61.6321 76.3492 61.5169 76.0717C61.4016 75.7942 61.236 75.565 61.037 75.4075C59.6049 74.2744 57.6646 73.2149 55.271 72.2914C49.6525 70.1271 42.2774 68.9336 34.5068 68.9336Z" fill="#FDDB3A"/>
</g>
<path d="M77.0005 33.8066C77.0005 32.4846 72.9778 31.3968 67.7 31.1872C67.5498 23.754 66.7747 18.0884 65.8401 18.0884C64.9055 18.0884 64.1305 23.754 63.9803 31.1872C58.7024 31.3968 54.6797 32.4903 54.6797 33.8066C54.6797 35.1229 58.7024 36.2144 63.9803 36.4241C64.1305 43.8592 64.9055 49.5229 65.8401 49.5229C66.7747 49.5229 67.5498 43.8573 67.7 36.4241C72.9778 36.2144 77.0005 35.1134 77.0005 33.8066Z" fill="#FDDB3A"/>
<path d="M35.9984 22.6398C35.9984 20.7664 30.2699 19.2102 22.7513 18.91C22.538 8.32097 21.4331 0.253174 20.1029 0.253174C18.7727 0.253174 17.6664 8.32097 17.4532 18.91C9.93456 19.2102 4.20605 20.7664 4.20605 22.6398C4.20605 24.5132 9.93456 26.0713 17.4532 26.3715C17.6664 36.9586 18.7713 45.0283 20.1029 45.0283C21.4345 45.0283 22.538 36.9586 22.7513 26.3715C30.2699 26.0713 35.9984 24.5151 35.9984 22.6398Z" fill="#FDDB3A"/>
</svg>
