<svg width="174" height="175" viewBox="0 0 174 175" fill="none" xmlns="http://www.w3.org/2000/svg">
<path d="M137.959 150.548V140.436H122.278C114.414 138.958 106.445 138.958 98.5814 140.436H82.9033V150.579C82.9033 150.697 82.9033 150.814 82.9033 150.932C83.1589 157.233 95.6908 162.257 110.894 162.15C126.097 162.044 138.214 156.851 137.959 150.548Z" fill="#FDAC3A"/>
<path d="M110.434 152.04C125.639 152.04 137.965 146.931 137.965 140.627C137.965 134.324 125.639 129.214 110.434 129.214C95.2293 129.214 82.9033 134.324 82.9033 140.627C82.9033 146.931 95.2293 152.04 110.434 152.04Z" fill="#FDDB3A"/>
<g style="mix-blend-mode:multiply">
<path d="M110.403 148.474C104.117 148.474 98.1401 147.504 93.575 145.744C91.5699 144.97 89.9391 144.087 88.7189 143.102C88.4087 142.856 88.1509 142.498 87.9726 142.064C87.7943 141.63 87.7019 141.137 87.7052 140.635C87.7029 140.126 87.7976 139.626 87.9795 139.186C88.1614 138.746 88.4238 138.383 88.7392 138.135C89.9241 137.186 91.5004 136.328 93.4252 135.566C97.8952 133.813 103.779 132.823 109.992 132.78C116.436 132.728 122.576 133.707 127.244 135.509C129.235 136.275 130.861 137.165 132.076 138.128C132.39 138.376 132.653 138.737 132.835 139.175C133.018 139.614 133.114 140.112 133.115 140.62C133.116 141.128 133.02 141.627 132.838 142.066C132.657 142.505 132.395 142.868 132.081 143.117C130.896 144.066 129.319 144.925 127.395 145.685C122.925 147.44 117.041 148.429 110.828 148.473L110.403 148.474ZM110.419 134.2H109.997C103.871 134.242 98.0824 135.213 93.6969 136.933C91.8511 137.658 90.3508 138.477 89.2376 139.369C89.078 139.495 88.9453 139.679 88.8531 139.901C88.761 140.124 88.7128 140.377 88.7136 140.635C88.7122 140.885 88.7583 141.132 88.8473 141.348C88.9362 141.565 89.0647 141.744 89.2194 141.867C90.3626 142.786 91.9174 143.629 93.8423 144.372C98.4235 146.138 104.467 147.102 110.823 147.05C116.949 147.007 122.738 146.036 127.123 144.315C128.969 143.59 130.469 142.771 131.583 141.881C131.741 141.754 131.872 141.571 131.963 141.349C132.055 141.127 132.102 140.876 132.102 140.619C132.101 140.363 132.053 140.112 131.96 139.891C131.868 139.67 131.736 139.488 131.577 139.363C130.435 138.45 128.888 137.614 126.979 136.878C122.497 135.15 116.617 134.2 110.419 134.2Z" fill="#FDDB3A"/>
</g>
<path d="M137.959 138.135V128.023H122.278C114.414 126.545 106.445 126.545 98.5814 128.023H82.9033V138.165C82.9033 138.282 82.9033 138.4 82.9033 138.517C83.1589 144.82 95.6908 149.843 110.894 149.738C126.097 149.632 138.214 144.436 137.959 138.135Z" fill="#FDAC3A"/>
<path d="M110.434 139.628C125.639 139.628 137.965 134.518 137.965 128.215C137.965 121.911 125.639 116.802 110.434 116.802C95.2293 116.802 82.9033 121.911 82.9033 128.215C82.9033 134.518 95.2293 139.628 110.434 139.628Z" fill="#FDDB3A"/>
<g style="mix-blend-mode:multiply">
<path d="M110.403 136.066C104.117 136.066 98.1401 135.096 93.575 133.335C91.5699 132.561 89.9391 131.679 88.7189 130.695C88.4086 130.449 88.1509 130.09 87.9726 129.656C87.7943 129.222 87.702 128.728 87.7052 128.227C87.703 127.718 87.7978 127.217 87.9797 126.778C88.1616 126.338 88.4239 125.975 88.7392 125.727C89.9241 124.778 91.5004 123.919 93.4252 123.166C97.8963 121.412 103.779 120.422 109.992 120.379C116.438 120.332 122.575 121.308 127.244 123.108C129.235 123.876 130.861 124.764 132.076 125.727C132.39 125.975 132.653 126.336 132.835 126.774C133.018 127.213 133.114 127.711 133.115 128.219C133.116 128.727 133.02 129.226 132.838 129.665C132.657 130.104 132.395 130.467 132.081 130.716C130.896 131.665 129.319 132.524 127.395 133.277C122.925 135.031 117.041 136.021 110.828 136.064L110.403 136.066ZM110.419 121.791H109.997C103.872 121.833 98.0824 122.805 93.6969 124.526C91.8511 125.249 90.3508 126.068 89.2376 126.96C89.078 127.086 88.9453 127.27 88.8531 127.493C88.761 127.716 88.7128 127.969 88.7136 128.227C88.7122 128.477 88.7583 128.723 88.8473 128.94C88.9362 129.156 89.0647 129.336 89.2194 129.459C90.3626 130.379 91.9174 131.221 93.8423 131.963C98.4235 133.73 104.467 134.694 110.823 134.641C116.949 134.599 122.738 133.627 127.123 131.906C128.969 131.182 130.469 130.364 131.583 129.472C131.741 129.346 131.872 129.162 131.963 128.94C132.055 128.719 132.102 128.467 132.102 128.211C132.101 127.955 132.053 127.703 131.96 127.483C131.868 127.262 131.736 127.079 131.577 126.954C130.435 126.041 128.888 125.206 126.979 124.469C122.497 122.743 116.616 121.791 110.419 121.791Z" fill="#FDDB3A"/>
</g>
<path d="M137.959 125.716V115.604H122.278C114.414 114.126 106.445 114.126 98.5814 115.604H82.9033V125.75C82.9033 125.868 82.9033 125.984 82.9033 126.103C83.1589 132.404 95.6908 137.427 110.894 137.322C126.097 137.216 138.214 132.017 137.959 125.716Z" fill="#FDAC3A"/>
<path d="M110.434 127.209C125.639 127.209 137.965 122.099 137.965 115.796C137.965 109.492 125.639 104.383 110.434 104.383C95.2293 104.383 82.9033 109.492 82.9033 115.796C82.9033 122.099 95.2293 127.209 110.434 127.209Z" fill="#FDDB3A"/>
<g style="mix-blend-mode:multiply">
<path d="M110.401 123.64C104.116 123.64 98.1389 122.671 93.5738 120.909C91.5687 120.136 89.938 119.252 88.7178 118.269C88.4085 118.023 88.1516 117.665 87.9735 117.233C87.7954 116.8 87.7028 116.308 87.7051 115.808C87.7031 115.299 87.7979 114.799 87.9798 114.359C88.1617 113.919 88.4239 113.556 88.7392 113.308C89.9241 112.359 91.5003 111.501 93.4252 110.748C97.8951 108.993 103.779 108.003 109.992 107.96C116.438 107.91 122.575 108.889 127.244 110.689C129.235 111.457 130.86 112.338 132.075 113.309C132.39 113.558 132.652 113.919 132.835 114.357C133.017 114.795 133.114 115.294 133.115 115.802C133.115 116.31 133.02 116.809 132.838 117.248C132.656 117.687 132.395 118.05 132.081 118.299C130.896 119.246 129.319 120.106 127.395 120.859C122.925 122.612 117.041 123.603 110.828 123.646L110.401 123.64ZM110.417 109.365H109.996C103.87 109.407 98.0812 110.379 93.6957 112.1C91.85 112.824 90.3497 113.644 89.2364 114.535C89.077 114.661 88.9443 114.845 88.8522 115.067C88.76 115.29 88.7118 115.543 88.7125 115.8C88.7109 116.051 88.757 116.297 88.846 116.514C88.935 116.73 89.0635 116.909 89.2183 117.032C90.3614 117.953 91.9163 118.795 93.8411 119.537C98.4223 121.305 104.465 122.268 110.822 122.216C116.948 122.173 122.736 121.201 127.122 119.481C128.968 118.757 130.468 117.938 131.58 117.046C131.739 116.92 131.871 116.738 131.963 116.516C132.055 116.295 132.103 116.043 132.103 115.787C132.103 115.531 132.055 115.279 131.963 115.058C131.871 114.836 131.739 114.653 131.58 114.528C130.438 113.624 128.891 112.781 126.982 112.043C122.496 110.318 116.614 109.366 110.417 109.366V109.365Z" fill="#FDDB3A"/>
</g>
<path d="M137.959 113.303V103.191H122.278C114.414 101.713 106.445 101.713 98.5814 103.191H82.9033V113.335C82.9033 113.452 82.9033 113.569 82.9033 113.687C83.1589 119.988 95.6908 125.011 110.894 124.906C126.097 124.8 138.214 119.606 137.959 113.303Z" fill="#FDAC3A"/>
<path d="M110.434 114.796C125.639 114.796 137.965 109.686 137.965 103.383C137.965 97.0795 125.639 91.9697 110.434 91.9697C95.2293 91.9697 82.9033 97.0795 82.9033 103.383C82.9033 109.686 95.2293 114.796 110.434 114.796Z" fill="#FDDB3A"/>
<g style="mix-blend-mode:multiply">
<path d="M110.403 111.232C104.117 111.232 98.1401 110.262 93.5749 108.501C91.5699 107.727 89.9391 106.845 88.7189 105.86C88.4087 105.614 88.1509 105.255 87.9726 104.821C87.7943 104.388 87.7019 103.894 87.7052 103.393C87.7029 102.884 87.7977 102.383 87.9796 101.943C88.1614 101.503 88.4238 101.14 88.7392 100.891C89.9241 99.9439 91.5003 99.0839 93.4252 98.3234C97.8952 96.5703 103.779 95.5793 109.992 95.5371C116.438 95.4965 122.575 96.4649 127.244 98.2661C129.235 99.0327 130.861 99.9228 132.075 100.885C132.39 101.133 132.653 101.494 132.836 101.932C133.019 102.37 133.116 102.868 133.117 103.376C133.118 103.884 133.023 104.383 132.841 104.822C132.66 105.262 132.399 105.625 132.085 105.875C130.9 106.824 129.324 107.682 127.399 108.435C122.929 110.19 117.045 111.179 110.832 111.223L110.403 111.232ZM110.419 96.9559H109.997C103.871 96.9995 98.0823 97.9709 93.6968 99.6909C91.8511 100.415 90.3508 101.235 89.2376 102.126C89.0779 102.252 88.9451 102.436 88.853 102.659C88.7609 102.882 88.7127 103.135 88.7136 103.393C88.7122 103.643 88.7583 103.889 88.8473 104.106C88.9362 104.323 89.0647 104.502 89.2194 104.625C90.3625 105.544 91.9174 106.387 93.8423 107.128C98.4234 108.896 104.466 109.858 110.823 109.807C116.949 109.765 122.738 108.794 127.123 107.072C128.969 106.348 130.469 105.528 131.581 104.637C131.74 104.511 131.872 104.329 131.964 104.108C132.056 103.886 132.105 103.635 132.105 103.379C132.105 103.122 132.056 102.871 131.964 102.649C131.872 102.428 131.74 102.246 131.581 102.12C130.439 101.208 128.892 100.372 126.983 99.6352C122.497 97.9077 116.616 96.9559 110.419 96.9559Z" fill="#FDDB3A"/>
</g>
<path d="M137.959 100.613V90.5039H122.278C114.414 89.0257 106.445 89.0257 98.5814 90.5039H82.9033V100.647C82.9033 100.765 82.9033 100.882 82.9033 101C83.1589 107.301 95.6908 112.324 110.894 112.218C126.097 112.113 138.214 106.92 137.959 100.613Z" fill="#FDAC3A"/>
<path d="M110.434 102.108C125.639 102.108 137.965 96.9983 137.965 90.695C137.965 84.3918 125.639 79.282 110.434 79.282C95.2293 79.282 82.9033 84.3918 82.9033 90.695C82.9033 96.9983 95.2293 102.108 110.434 102.108Z" fill="#FDDB3A"/>
<g style="mix-blend-mode:multiply">
<path d="M110.403 98.5445C104.117 98.5445 98.1401 97.5761 93.575 95.814C91.5699 95.0414 89.9391 94.1573 88.7189 93.1739C88.4087 92.9281 88.1509 92.5695 87.9726 92.1356C87.7943 91.7016 87.7019 91.2082 87.7052 90.7069C87.7029 90.1978 87.7977 89.6972 87.9796 89.2572C88.1614 88.8172 88.4238 88.4539 88.7392 88.2053C89.9241 87.2565 91.5004 86.398 93.4252 85.645C97.8963 83.8904 103.779 82.9009 109.992 82.8587C116.438 82.8166 122.575 83.7865 127.244 85.5862C129.235 86.3543 130.861 87.2429 132.076 88.2068C132.39 88.455 132.653 88.8167 132.835 89.2547C133.018 89.6928 133.114 90.1914 133.115 90.6994C133.116 91.2075 133.02 91.7065 132.838 92.1453C132.657 92.5842 132.395 92.947 132.081 93.1965C130.896 94.1453 129.319 95.0038 127.395 95.7568C122.925 97.5114 117.041 98.5009 110.828 98.543L110.403 98.5445ZM110.419 84.2699H109.997C103.872 84.3121 98.0824 85.2835 93.6969 87.005C91.8511 87.7294 90.3508 88.5487 89.2376 89.4403C89.0781 89.5662 88.9454 89.7499 88.8533 89.9724C88.7611 90.1948 88.7129 90.4479 88.7136 90.7054C88.7122 90.9558 88.7584 91.2022 88.8473 91.4191C88.9362 91.636 89.0647 91.8154 89.2194 91.9389C90.3626 92.8576 91.9174 93.701 93.8423 94.442C98.4235 96.2101 104.467 97.1695 110.823 97.1213C116.949 97.0776 122.738 96.1077 127.123 94.3863C128.969 93.6618 130.469 92.8425 131.583 91.9509C131.741 91.8245 131.872 91.6412 131.964 91.4197C132.055 91.1982 132.103 90.9465 132.102 90.6904C132.102 90.4343 132.053 90.183 131.96 89.9623C131.868 89.7416 131.736 89.5593 131.577 89.4343C130.435 88.5216 128.888 87.6857 126.979 86.9477C122.497 85.2218 116.616 84.2699 110.419 84.2699Z" fill="#FDDB3A"/>
</g>
<path d="M137.959 88.2033V78.0915H122.278C114.414 76.6134 106.445 76.6134 98.5814 78.0915H82.9033V88.2349C82.9033 88.3524 82.9033 88.4699 82.9033 88.5873C83.1589 94.8902 95.6908 99.913 110.894 99.806C126.097 99.6991 138.214 94.5062 137.959 88.2033Z" fill="#FDAC3A"/>
<path d="M110.434 89.6962C125.639 89.6962 137.965 84.5864 137.965 78.2832C137.965 71.9799 125.639 66.8701 110.434 66.8701C95.2293 66.8701 82.9033 71.9799 82.9033 78.2832C82.9033 84.5864 95.2293 89.6962 110.434 89.6962Z" fill="#FDDB3A"/>
<g style="mix-blend-mode:multiply">
<path d="M110.403 86.1327C104.117 86.1327 98.1401 85.1628 93.575 83.4022C91.5699 82.628 89.9391 81.7455 88.7189 80.7605C88.4087 80.5147 88.1509 80.1561 87.9726 79.7222C87.7943 79.2882 87.7019 78.7949 87.7052 78.2935C87.703 77.7846 87.7978 77.2842 87.9797 76.8445C88.1616 76.4048 88.4239 76.0418 88.7392 75.7934C89.9241 74.8446 91.5004 73.9861 93.4252 73.224C97.8952 71.471 103.779 70.48 109.992 70.4378C116.438 70.3926 122.575 71.3655 127.244 73.1668C129.235 73.9334 130.861 74.8235 132.076 75.7859C132.39 76.034 132.653 76.3957 132.835 76.8338C133.018 77.2718 133.114 77.7705 133.115 78.2785C133.116 78.7865 133.02 79.2856 132.838 79.7244C132.657 80.1633 132.395 80.5261 132.081 80.7755C130.896 81.7244 129.319 82.5828 127.395 83.3434C122.925 85.098 117.041 86.0875 110.828 86.1312L110.403 86.1327ZM110.419 71.8565H109.997C103.871 71.8987 98.0824 72.8701 93.6969 74.5901C91.8511 75.3145 90.3508 76.1338 89.2376 77.0254C89.0779 77.1515 88.9451 77.3354 88.853 77.5581C88.7609 77.7809 88.7127 78.0342 88.7136 78.292C88.7122 78.5422 88.7583 78.7885 88.8473 79.0051C88.9362 79.2217 89.0647 79.4009 89.2194 79.524C90.3626 80.4442 91.9174 81.2861 93.8423 82.0286C98.4235 83.7952 104.467 84.7546 110.823 84.7064C116.949 84.6642 122.738 83.6928 127.123 81.9714C128.969 81.247 130.469 80.4276 131.583 79.5375C131.741 79.4109 131.872 79.2275 131.963 79.0058C132.055 78.7842 132.102 78.5324 132.102 78.2763C132.101 78.0201 132.053 77.7687 131.96 77.5479C131.868 77.327 131.736 77.1446 131.577 77.0194C130.435 76.1067 128.888 75.2708 126.979 74.5343C122.497 72.8084 116.616 71.8565 110.419 71.8565Z" fill="#FDDB3A"/>
</g>
<path d="M137.959 75.54V65.4282H122.278C114.414 63.95 106.445 63.95 98.5814 65.4282H82.9033V75.5716C82.9033 75.6876 82.9033 75.8051 82.9033 75.9241C83.1589 82.2255 95.6908 87.2483 110.894 87.1428C126.097 87.0374 138.214 81.8414 137.959 75.54Z" fill="#FDAC3A"/>
<path d="M110.434 77.0329C125.639 77.0329 137.965 71.9231 137.965 65.6198C137.965 59.3166 125.639 54.2068 110.434 54.2068C95.2293 54.2068 82.9033 59.3166 82.9033 65.6198C82.9033 71.9231 95.2293 77.0329 110.434 77.0329Z" fill="#FDDB3A"/>
<g style="mix-blend-mode:multiply">
<path d="M110.403 73.4692C104.117 73.4692 98.1401 72.4992 93.5749 70.7386C91.5699 69.966 89.9391 69.082 88.7189 68.0985C88.4086 67.8523 88.1509 67.4935 87.9726 67.0593C87.7943 66.6251 87.702 66.1316 87.7052 65.63C87.7031 65.1212 87.798 64.6209 87.9798 64.1812C88.1617 63.7415 88.4239 63.3785 88.7392 63.13C89.9241 62.1811 91.5004 61.3227 93.4252 60.5621C97.8952 58.8075 103.779 57.818 109.992 57.7744C116.438 57.7307 122.575 58.7036 127.244 60.5034C129.235 61.2715 130.861 62.16 132.075 63.1239C132.39 63.3722 132.652 63.7338 132.834 64.1717C133.017 64.6096 133.113 65.108 133.114 65.6158C133.114 66.1235 133.019 66.6223 132.837 67.061C132.656 67.4997 132.395 67.8625 132.081 68.1121C130.896 69.0609 129.319 69.9193 127.395 70.6814C122.925 72.4345 117.041 73.4255 110.828 73.4676L110.403 73.4692ZM110.419 59.1946H109.997C103.871 59.2368 98.0823 60.2082 93.6968 61.9296C91.8511 62.654 90.3508 63.4733 89.2376 64.3634C89.0781 64.4899 88.9455 64.6739 88.8534 64.8965C88.7613 65.1192 88.7131 65.3724 88.7136 65.63C88.7122 65.8803 88.7583 66.1265 88.8473 66.3431C88.9362 66.5598 89.0647 66.7389 89.2194 66.862C90.3625 67.7822 91.9174 68.6241 93.8423 69.3666C98.4235 71.1332 104.466 72.0941 110.823 72.0444C116.949 72.0022 122.738 71.0308 127.123 69.3109C128.969 68.5865 130.469 67.7672 131.582 66.8756C131.741 66.749 131.872 66.5655 131.963 66.3439C132.054 66.1222 132.102 65.8705 132.102 65.6143C132.101 65.3581 132.052 65.1067 131.96 64.8859C131.868 64.6651 131.736 64.4827 131.577 64.3574C130.435 63.4462 128.888 62.6089 126.979 61.8724C122.497 60.1464 116.616 59.1946 110.419 59.1946Z" fill="#FDDB3A"/>
</g>
<path d="M55.0581 144.8V134.688H39.3768C31.513 133.21 23.5445 133.21 15.6806 134.688H0.00360858V144.831C-0.00120286 144.949 -0.00120286 145.066 0.00360858 145.184C0.259189 151.485 12.7901 156.508 27.9934 156.403C43.1966 156.297 55.3137 151.101 55.0581 144.8Z" fill="#FDAC3A"/>
<path d="M27.531 146.293C42.736 146.293 55.0621 141.183 55.0621 134.88C55.0621 128.577 42.736 123.467 27.531 123.467C12.3261 123.467 0 128.577 0 134.88C0 141.183 12.3261 146.293 27.531 146.293Z" fill="#FDDB3A"/>
<g style="mix-blend-mode:multiply">
<path d="M27.4992 142.731C21.2134 142.731 15.2378 141.761 10.6727 140.001C8.66653 139.228 7.0368 138.344 5.81558 137.361C5.50562 137.114 5.24813 136.756 5.06986 136.322C4.89159 135.888 4.79904 135.395 4.80182 134.894C4.79981 134.385 4.89466 133.884 5.07652 133.444C5.25837 133.004 5.52059 132.641 5.8359 132.392C7.02076 131.443 8.59808 130.585 10.523 129.832C14.9918 128.077 20.8755 127.088 27.0886 127.044C33.5326 126.994 39.6729 127.973 44.3418 129.773C46.333 130.541 47.9573 131.43 49.1721 132.394C49.4864 132.643 49.7479 133.005 49.9299 133.443C50.1119 133.881 50.2078 134.38 50.2078 134.888C50.2078 135.395 50.1119 135.894 49.9299 136.332C49.7479 136.771 49.4864 137.133 49.1721 137.382C47.9873 138.331 46.411 139.189 44.4862 139.942C40.0162 141.697 34.1325 142.688 27.9205 142.73L27.4992 142.731ZM27.5163 128.457H27.0886C20.9621 128.499 15.1736 129.47 10.7882 131.192C8.94242 131.916 7.44316 132.735 6.32888 133.626C6.16943 133.752 6.03686 133.936 5.94492 134.159C5.85297 134.381 5.80499 134.635 5.80596 134.892C5.8041 135.142 5.84995 135.389 5.93873 135.605C6.02751 135.822 6.15597 136.001 6.3107 136.124C7.45386 137.044 9.00979 137.886 10.9336 138.629C15.5158 140.397 21.5578 141.361 27.9152 141.307C34.0405 141.264 39.829 140.293 44.2156 138.572C46.0603 137.849 47.5606 137.029 48.6738 136.138C48.8323 136.013 48.9643 135.831 49.0559 135.611C49.1475 135.39 49.1954 135.139 49.1946 134.883C49.195 134.626 49.1465 134.373 49.0542 134.151C48.9619 133.929 48.8291 133.745 48.6695 133.62C47.5274 132.716 45.9801 131.871 44.0712 131.135C39.5938 129.409 33.7133 128.457 27.5163 128.457Z" fill="#FDDB3A"/>
</g>
<path d="M55.0581 132.382V122.271H39.3768C31.513 120.793 23.5445 120.793 15.6806 122.271H0.00360858V132.414C-0.00120286 132.531 -0.00120286 132.649 0.00360858 132.767C0.259189 139.068 12.7901 144.091 27.9934 143.985C43.1966 143.88 55.3137 138.688 55.0581 132.382Z" fill="#FDAC3A"/>
<path d="M27.531 133.88C42.736 133.88 55.0621 128.77 55.0621 122.467C55.0621 116.164 42.736 111.054 27.531 111.054C12.3261 111.054 0 116.164 0 122.467C0 128.77 12.3261 133.88 27.531 133.88Z" fill="#FDDB3A"/>
<g style="mix-blend-mode:multiply">
<path d="M27.4993 130.318C21.2135 130.318 15.2379 129.349 10.6727 127.588C8.66655 126.814 7.03681 125.931 5.81559 124.946C5.50555 124.7 5.248 124.341 5.06972 123.908C4.89143 123.474 4.79893 122.981 4.80182 122.479C4.79981 121.97 4.89467 121.47 5.07652 121.03C5.25838 120.59 5.5206 120.227 5.83591 119.978C7.02077 119.029 8.5981 118.17 10.523 117.417C14.993 115.664 20.8767 114.673 27.0887 114.631C33.5359 114.583 39.6731 115.559 44.342 117.359C46.3331 118.127 47.9575 119.015 49.1723 119.979C49.4868 120.228 49.7486 120.59 49.9308 121.029C50.113 121.467 50.209 121.966 50.209 122.474C50.209 122.982 50.113 123.481 49.9308 123.919C49.7486 124.358 49.4868 124.72 49.1723 124.969C47.9875 125.918 46.4112 126.776 44.4863 127.529C40.0163 129.284 34.1326 130.273 27.9206 130.315L27.4993 130.318ZM27.5164 116.042H27.0887C20.9633 116.086 15.1748 117.056 10.7882 118.777C8.94244 119.502 7.44318 120.321 6.32889 121.213C6.16921 121.339 6.03646 121.522 5.94448 121.745C5.8525 121.968 5.80466 122.222 5.80597 122.479C5.8041 122.729 5.84995 122.976 5.93874 123.192C6.02752 123.409 6.15598 123.588 6.31071 123.711C7.45387 124.63 9.00981 125.473 10.9336 126.214C15.5159 127.983 21.5579 128.946 27.9153 128.894C34.0407 128.852 39.8292 127.88 44.2158 126.159C46.0604 125.434 47.5608 124.615 48.674 123.723C48.8327 123.599 48.9647 123.417 49.0563 123.196C49.148 122.976 49.1958 122.724 49.1948 122.469C49.1952 122.212 49.1467 121.959 49.0544 121.737C48.962 121.515 48.8292 121.332 48.6697 121.207C47.5276 120.294 45.9802 119.458 44.0714 118.722C39.5939 116.994 33.7134 116.042 27.5164 116.042Z" fill="#FDDB3A"/>
</g>
<path d="M55.0581 119.965V109.852H39.3768C31.513 108.373 23.5445 108.373 15.6806 109.852H0.00360858V119.995C-0.00120286 120.112 -0.00120286 120.23 0.00360858 120.347C0.259189 126.65 12.7901 131.673 27.9934 131.566C43.1966 131.459 55.3137 126.266 55.0581 119.965Z" fill="#FDAC3A"/>
<path d="M27.531 121.456C42.736 121.456 55.0621 116.347 55.0621 110.043C55.0621 103.74 42.736 98.6304 27.531 98.6304C12.3261 98.6304 0 103.74 0 110.043C0 116.347 12.3261 121.456 27.531 121.456Z" fill="#FDDB3A"/>
<g style="mix-blend-mode:multiply">
<path d="M27.4993 117.894C21.2135 117.894 15.2379 116.924 10.6727 115.164C8.66656 114.389 7.03683 113.507 5.8156 112.522C5.50541 112.276 5.24773 111.917 5.06943 111.484C4.89112 111.05 4.79871 110.556 4.80183 110.055C4.7999 109.546 4.8948 109.046 5.07666 108.606C5.25852 108.167 5.52069 107.804 5.83592 107.555C7.02078 106.606 8.59811 105.748 10.523 104.986C14.9919 103.232 20.8756 102.243 27.0887 102.199C33.5359 102.15 39.6731 103.127 44.342 104.928C46.3331 105.696 47.9575 106.585 49.1723 107.547C49.4868 107.796 49.7486 108.158 49.9308 108.597C50.113 109.035 50.209 109.534 50.209 110.042C50.209 110.55 50.113 111.049 49.9308 111.488C49.7486 111.926 49.4868 112.288 49.1723 112.537C47.9885 113.486 46.4112 114.344 44.4863 115.097C40.0163 116.852 34.1326 117.841 27.9206 117.885L27.4993 117.894ZM27.5164 103.62H27.0887C20.9622 103.662 15.1737 104.633 10.7882 106.353C8.94245 107.077 7.44319 107.897 6.3289 108.788C6.16922 108.914 6.03647 109.098 5.94449 109.321C5.85251 109.544 5.80467 109.797 5.80598 110.055C5.80412 110.305 5.84997 110.551 5.93875 110.768C6.02753 110.985 6.15599 111.164 6.31072 111.287C7.45388 112.207 9.00982 113.049 10.9336 113.792C15.5159 115.558 21.5579 116.521 27.9153 116.469C34.0407 116.427 39.8292 115.456 44.2158 113.734C46.0615 113.01 47.5608 112.191 48.674 111.301C48.8327 111.175 48.9648 110.992 49.0567 110.771C49.1486 110.55 49.1971 110.298 49.1971 110.041C49.1971 109.785 49.1486 109.533 49.0567 109.312C48.9648 109.091 48.8327 108.908 48.674 108.782C47.5319 107.87 45.9845 107.034 44.0757 106.297C39.5939 104.571 33.7134 103.614 27.5164 103.614V103.62Z" fill="#FDDB3A"/>
</g>
<path d="M55.0581 107.549V97.4392H39.3768C31.513 95.961 23.5445 95.961 15.6806 97.4392H0.00360858V107.583C-0.00120286 107.7 -0.00120286 107.818 0.00360858 107.935C0.259189 114.236 12.7901 119.259 27.9934 119.154C43.1966 119.048 55.3137 113.855 55.0581 107.549Z" fill="#FDAC3A"/>
<path d="M27.531 109.044C42.736 109.044 55.0621 103.934 55.0621 97.6305C55.0621 91.3273 42.736 86.2175 27.531 86.2175C12.3261 86.2175 0 91.3273 0 97.6305C0 103.934 12.3261 109.044 27.531 109.044Z" fill="#FDDB3A"/>
<g style="mix-blend-mode:multiply">
<path d="M27.4992 105.481C21.2135 105.481 15.2378 104.511 10.6727 102.75C8.66653 101.978 7.03681 101.094 5.81559 100.11C5.50547 99.8638 5.24787 99.5049 5.06959 99.0708C4.89131 98.6367 4.79885 98.1433 4.80183 97.6418C4.7999 97.133 4.89479 96.6327 5.07665 96.193C5.25851 95.7534 5.52068 95.3903 5.83591 95.1417C7.02077 94.1929 8.59809 93.3344 10.523 92.5814C14.9919 90.8268 20.8755 89.8373 27.0886 89.7936C33.5358 89.7545 39.6729 90.7214 44.3418 92.5226C46.333 93.2907 47.9573 94.1793 49.1721 95.1432C49.4864 95.3921 49.7479 95.7543 49.9299 96.1926C50.1119 96.6309 50.2078 97.1295 50.2078 97.6373C50.2078 98.145 50.1119 98.6436 49.9299 99.0819C49.7479 99.5202 49.4864 99.8824 49.1721 100.131C47.9884 101.08 46.411 101.939 44.4862 102.692C40.0162 104.446 34.1325 105.436 27.9205 105.479L27.4992 105.481ZM27.5163 91.2063H27.0886C20.9622 91.2485 15.1736 92.2199 10.7882 93.9414C8.94243 94.6658 7.44317 95.4851 6.32888 96.3752C6.16944 96.5014 6.03687 96.6855 5.94493 96.9082C5.85298 97.1309 5.805 97.3842 5.80597 97.6418C5.8041 97.892 5.84995 98.1383 5.93874 98.355C6.02752 98.5717 6.15598 98.7508 6.31071 98.8738C7.45386 99.794 9.0098 100.636 10.9336 101.378C15.5158 103.145 21.5578 104.107 27.9152 104.056C34.0406 104.014 39.829 103.043 44.2156 101.321C46.0613 100.598 47.5606 99.7789 48.6738 98.8873C48.8323 98.7629 48.9643 98.5809 49.0559 98.3602C49.1475 98.1395 49.1954 97.8883 49.1946 97.6328C49.195 97.3753 49.1465 97.1225 49.0542 96.9003C48.9619 96.6781 48.8291 96.4948 48.6695 96.3692C47.5274 95.458 45.9801 94.6206 44.0712 93.8841C39.5938 92.1582 33.7133 91.2063 27.5163 91.2063Z" fill="#FDDB3A"/>
</g>
<path d="M55.0581 94.8674V84.7556H39.3768C31.513 83.2774 23.5445 83.2774 15.6806 84.7556H0.00360858V94.8975C-0.00120286 95.0149 -0.00120286 95.1326 0.00360858 95.25C0.259189 101.553 12.7901 106.576 27.9934 106.47C43.1966 106.365 55.3137 101.169 55.0581 94.8674Z" fill="#FDAC3A"/>
<path d="M27.531 96.3604C42.736 96.3604 55.0621 91.2507 55.0621 84.9474C55.0621 78.6442 42.736 73.5344 27.531 73.5344C12.3261 73.5344 0 78.6442 0 84.9474C0 91.2507 12.3261 96.3604 27.531 96.3604Z" fill="#FDDB3A"/>
<g style="mix-blend-mode:multiply">
<path d="M27.4993 92.7983C21.2135 92.7983 15.2379 91.8284 10.6727 90.0678C8.66655 89.2936 7.03682 88.4111 5.81559 87.4276C5.50547 87.1812 5.24788 86.8223 5.0696 86.3881C4.89131 85.954 4.79885 85.4606 4.80183 84.9591C4.7999 84.4503 4.89479 83.95 5.07665 83.5104C5.25851 83.0707 5.52068 82.7077 5.83591 82.459C7.02078 81.5102 8.59811 80.6517 10.523 79.8987C14.993 78.1441 20.8767 77.1546 27.0887 77.1109C33.5359 77.0688 39.6731 78.0387 44.342 79.84C46.3331 80.6081 47.9575 81.4967 49.1723 82.459C49.4868 82.7079 49.7486 83.0701 49.9308 83.5086C50.113 83.947 50.209 84.4458 50.209 84.9539C50.209 85.4619 50.113 85.9607 49.9308 86.3992C49.7486 86.8376 49.4868 87.1999 49.1723 87.4487C47.9875 88.3975 46.4112 89.256 44.4863 90.0166C40.0163 91.7711 34.1326 92.7606 27.9206 92.8043L27.4993 92.7983ZM27.5164 78.5236H27.0887C20.9633 78.5658 15.1748 79.5372 10.7882 81.2587C8.94244 81.9816 7.44318 82.8009 6.32889 83.6925C6.16937 83.8186 6.03674 84.0026 5.94478 84.2254C5.85282 84.4481 5.80489 84.7015 5.80597 84.9591C5.80411 85.2093 5.84996 85.4556 5.93874 85.6723C6.02753 85.889 6.15599 86.0682 6.31071 86.1911C7.45388 87.1113 9.00981 87.9532 10.9336 88.6957C15.5159 90.4624 21.5579 91.4232 27.9153 91.3735C34.0407 91.3314 39.8292 90.36 44.2158 88.6385C46.0604 87.9141 47.5608 87.0963 48.674 86.2047C48.8325 86.0802 48.9644 85.8982 49.056 85.6776C49.1476 85.4569 49.1956 85.2057 49.1948 84.9501C49.1952 84.6927 49.1467 84.4398 49.0544 84.2177C48.962 83.9955 48.8292 83.8121 48.6697 83.6865C47.5276 82.7738 45.9802 81.9379 44.0714 81.2015C39.5939 79.4755 33.7134 78.5236 27.5164 78.5236Z" fill="#FDDB3A"/>
</g>
<path d="M55.0581 82.4519V72.3401H39.3768C31.513 70.8619 23.5445 70.8619 15.6806 72.3401H0.00360858V82.4835C-0.00120286 82.6009 -0.00120286 82.7186 0.00360858 82.8359C0.259189 89.1374 12.7901 94.1601 27.9934 94.0547C43.1966 93.9493 55.3137 88.7533 55.0581 82.4519Z" fill="#FDAC3A"/>
<path d="M27.531 83.9455C42.736 83.9455 55.0621 78.8357 55.0621 72.5324C55.0621 66.2292 42.736 61.1194 27.531 61.1194C12.3261 61.1194 0 66.2292 0 72.5324C0 78.8357 12.3261 83.9455 27.531 83.9455Z" fill="#FDDB3A"/>
<g style="mix-blend-mode:multiply">
<path d="M27.4993 80.3832C21.2135 80.3832 15.2379 79.4148 10.6727 77.6527C8.66655 76.8801 7.03682 75.996 5.81559 75.0126C5.50547 74.7662 5.24788 74.4072 5.0696 73.9731C4.89131 73.539 4.79885 73.0456 4.80183 72.5441C4.80001 72.0353 4.89495 71.5351 5.0768 71.0955C5.25865 70.6558 5.52076 70.2928 5.83591 70.044C7.02078 69.0952 8.59811 68.2368 10.523 67.4837C14.9919 65.7291 20.8756 64.7397 27.0887 64.696C33.5359 64.6523 39.6731 65.6252 44.342 67.425C46.3331 68.1931 47.9575 69.0741 49.1723 70.0455C49.4868 70.2944 49.7486 70.6566 49.9308 71.0951C50.113 71.5335 50.209 72.0324 50.209 72.5404C50.209 73.0484 50.113 73.5472 49.9308 73.9857C49.7486 74.4241 49.4868 74.7863 49.1723 75.0352C47.9875 75.9825 46.4112 76.8424 44.4863 77.5955C40.0163 79.3485 34.1326 80.3395 27.9206 80.3817L27.4993 80.3832ZM27.5164 66.1087H27.0887C20.9622 66.1509 15.1737 67.1223 10.7882 68.8437C8.94244 69.5681 7.44318 70.3874 6.32889 71.279C6.16938 71.4048 6.03673 71.5885 5.94475 71.811C5.85278 72.0335 5.80486 72.2867 5.80597 72.5441C5.80399 72.7943 5.8498 73.0407 5.93859 73.2574C6.02739 73.4741 6.15591 73.6533 6.31071 73.7761C7.45388 74.6963 9.00981 75.5382 10.9336 76.2807C15.5159 78.0473 21.5579 79.0082 27.9153 78.96C34.0407 78.9163 39.8292 77.9449 44.2158 76.225C46.0604 75.5005 47.5608 74.6812 48.674 73.7896C48.8325 73.6652 48.9644 73.4832 49.056 73.2625C49.1476 73.0419 49.1956 72.7907 49.1948 72.5351C49.195 72.2777 49.1465 72.0249 49.0542 71.8028C48.9619 71.5806 48.8292 71.3972 48.6697 71.2715C47.5276 70.3678 45.9802 69.5229 44.0714 68.7865C39.5939 67.0605 33.7134 66.1087 27.5164 66.1087Z" fill="#FDDB3A"/>
</g>
<path d="M88.7561 163V152.888H73.0749C65.211 151.41 57.2426 151.41 49.3787 152.888H33.7007V163.031C33.7007 163.149 33.7007 163.266 33.7007 163.384C33.9563 169.687 46.4882 174.709 61.6914 174.603C76.8947 174.496 89.0117 169.303 88.7561 163Z" fill="#FDAC3A"/>
<path d="M61.2317 164.493C76.4367 164.493 88.7628 159.383 88.7628 153.08C88.7628 146.776 76.4367 141.667 61.2317 141.667C46.0267 141.667 33.7007 146.776 33.7007 153.08C33.7007 159.383 46.0267 164.493 61.2317 164.493Z" fill="#FDDB3A"/>
<g style="mix-blend-mode:multiply">
<path d="M61.2023 160.926C54.9176 160.926 48.9409 159.956 44.3757 158.195C42.3707 157.421 40.7399 156.538 39.5197 155.553C39.2094 155.308 38.9517 154.949 38.7734 154.515C38.5951 154.081 38.5027 153.588 38.5059 153.086C38.5038 152.578 38.5985 152.077 38.7802 151.638C38.9618 151.198 39.2239 150.835 39.539 150.586C40.7249 149.637 42.3012 148.779 44.226 148.017C48.696 146.264 54.5786 145.274 60.7928 145.231C67.2368 145.179 73.3772 146.158 78.045 147.96C80.0362 148.726 81.6616 149.616 82.8764 150.579C83.1909 150.828 83.4527 151.19 83.6349 151.628C83.8171 152.067 83.9131 152.566 83.9131 153.074C83.9131 153.582 83.8171 154.08 83.6349 154.519C83.4527 154.957 83.1909 155.32 82.8764 155.568C81.6916 156.517 80.1142 157.376 78.1894 158.129C73.7194 159.883 67.8367 160.873 61.6237 160.917L61.2023 160.926ZM61.2195 146.651H60.7917C54.6663 146.693 48.8767 147.665 44.4912 149.384C42.6466 150.109 41.1462 150.928 40.033 151.82C39.8734 151.946 39.7407 152.13 39.6486 152.353C39.5564 152.575 39.5083 152.829 39.509 153.086C39.5074 153.337 39.5534 153.583 39.6424 153.8C39.7314 154.016 39.86 154.196 40.0148 154.318C41.158 155.239 42.7129 156.08 44.6367 156.823C49.2189 158.59 55.262 159.554 61.6183 159.501C67.7448 159.459 73.5333 158.487 77.9188 156.766C79.7645 156.041 81.2638 155.222 82.377 154.332C82.5357 154.206 82.6678 154.023 82.7597 153.802C82.8516 153.581 82.9001 153.329 82.9001 153.073C82.9001 152.816 82.8516 152.565 82.7597 152.343C82.6678 152.122 82.5357 151.939 82.377 151.814C81.2349 150.901 79.6875 150.065 77.7787 149.329C73.298 147.601 67.4165 146.651 61.2195 146.651Z" fill="#FDDB3A"/>
</g>
<path d="M88.7561 150.896V140.784H73.0749C65.211 139.306 57.2426 139.306 49.3787 140.784H33.7007V150.928C33.7007 151.045 33.7007 151.163 33.7007 151.28C33.9563 157.582 46.4882 162.606 61.6914 162.499C76.8947 162.392 89.0117 157.198 88.7561 150.896Z" fill="#FDAC3A"/>
<path d="M61.2317 152.387C76.4367 152.387 88.7628 147.277 88.7628 140.974C88.7628 134.671 76.4367 129.561 61.2317 129.561C46.0267 129.561 33.7007 134.671 33.7007 140.974C33.7007 147.277 46.0267 152.387 61.2317 152.387Z" fill="#FDDB3A"/>
<g style="mix-blend-mode:multiply">
<path d="M61.2023 148.825C54.9176 148.825 48.9409 147.855 44.3757 146.094C42.3707 145.32 40.7399 144.437 39.5197 143.452C39.2094 143.207 38.9517 142.848 38.7734 142.414C38.5951 141.98 38.5027 141.487 38.5059 140.986C38.5037 140.477 38.5983 139.976 38.78 139.537C38.9617 139.097 39.2238 138.734 39.539 138.485C40.7249 137.537 42.3012 136.678 44.226 135.916C48.696 134.163 54.5786 133.174 60.7928 133.13C67.2368 133.079 73.3772 134.058 78.045 135.859C80.0362 136.625 81.6616 137.508 82.8764 138.478C83.1909 138.727 83.4527 139.089 83.6349 139.527C83.8171 139.966 83.9131 140.465 83.9131 140.973C83.9131 141.481 83.8171 141.98 83.6349 142.418C83.4527 142.856 83.1909 143.219 82.8764 143.468C81.6916 144.416 80.1142 145.275 78.1894 146.028C73.7194 147.782 67.8367 148.772 61.6237 148.816L61.2023 148.825ZM61.2195 134.55H60.7917C54.6663 134.594 48.8767 135.565 44.4912 137.285C42.6466 138.01 41.1462 138.829 40.033 139.72C39.8734 139.846 39.7406 140.03 39.6484 140.253C39.5563 140.476 39.5082 140.729 39.509 140.987C39.5074 141.237 39.5534 141.484 39.6424 141.7C39.7314 141.917 39.86 142.096 40.0148 142.219C41.158 143.138 42.7129 143.981 44.6367 144.722C49.2189 146.49 55.262 147.454 61.6183 147.401C67.7448 147.359 73.5333 146.388 77.9188 144.666C79.7645 143.942 81.2638 143.123 82.377 142.233C82.5357 142.107 82.6678 141.924 82.7597 141.703C82.8516 141.482 82.9001 141.23 82.9001 140.973C82.9001 140.717 82.8516 140.465 82.7597 140.244C82.6678 140.023 82.5357 139.84 82.377 139.714C81.2349 138.802 79.6875 137.966 77.7787 137.229C73.298 135.5 67.4165 134.55 61.2195 134.55Z" fill="#FDDB3A"/>
</g>
<path d="M88.7561 138.483V128.371H73.0749C65.211 126.893 57.2426 126.893 49.3787 128.371H33.7007V138.513C33.7007 138.631 33.7007 138.748 33.7007 138.866C33.9563 145.168 46.4882 150.191 61.6914 150.084C76.8947 149.977 89.0117 144.784 88.7561 138.483Z" fill="#FDAC3A"/>
<path d="M61.2317 139.971C76.4367 139.971 88.7628 134.861 88.7628 128.558C88.7628 122.255 76.4367 117.145 61.2317 117.145C46.0267 117.145 33.7007 122.255 33.7007 128.558C33.7007 134.861 46.0267 139.971 61.2317 139.971Z" fill="#FDDB3A"/>
<g style="mix-blend-mode:multiply">
<path d="M61.2023 136.412C54.9176 136.412 48.9409 135.443 44.3757 133.682C42.3707 132.908 40.7399 132.025 39.5197 131.042C39.2094 130.796 38.9517 130.437 38.7734 130.003C38.5951 129.568 38.5027 129.075 38.5059 128.573C38.5038 128.065 38.5985 127.564 38.7801 127.125C38.9618 126.685 39.2239 126.322 39.539 126.073C40.7249 125.124 42.3011 124.266 44.226 123.505C48.696 121.751 54.5797 120.761 60.7928 120.718C67.239 120.671 73.3761 121.645 78.045 123.447C80.0362 124.215 81.6616 125.103 82.8764 126.066C83.1909 126.315 83.4527 126.677 83.6349 127.115C83.8171 127.554 83.9131 128.053 83.9131 128.561C83.9131 129.069 83.8171 129.567 83.6349 130.006C83.4527 130.444 83.1909 130.807 82.8764 131.055C81.6916 132.004 80.1142 132.863 78.1894 133.616C73.7194 135.37 67.8367 136.36 61.6237 136.403L61.2023 136.412ZM61.2195 122.138H60.7917C54.6663 122.18 48.8778 123.151 44.4912 124.873C42.6466 125.596 41.1462 126.415 40.033 127.307C39.8734 127.433 39.7407 127.617 39.6486 127.84C39.5564 128.062 39.5083 128.316 39.509 128.573C39.5074 128.824 39.5534 129.07 39.6424 129.287C39.7314 129.503 39.86 129.682 40.0148 129.805C41.158 130.726 42.7129 131.567 44.6367 132.31C49.2189 134.077 55.262 135.04 61.6183 134.988C67.7448 134.946 73.5333 133.974 77.9188 132.253C79.7645 131.528 81.2638 130.71 82.377 129.819C82.5357 129.693 82.6678 129.51 82.7597 129.289C82.8516 129.068 82.9001 128.816 82.9001 128.56C82.9001 128.303 82.8516 128.052 82.7597 127.83C82.6678 127.609 82.5357 127.426 82.377 127.301C81.2349 126.388 79.6875 125.552 77.7787 124.816C73.298 123.09 67.4165 122.136 61.2195 122.136V122.138Z" fill="#FDDB3A"/>
</g>
<path d="M88.7561 126.065V115.959H73.0749C65.211 114.481 57.2426 114.481 49.3787 115.959H33.7007V126.102C33.7007 126.218 33.7007 126.336 33.7007 126.455C33.9563 132.756 46.4882 137.779 61.6914 137.673C76.8947 137.568 89.0117 132.366 88.7561 126.065Z" fill="#FDAC3A"/>
<path d="M61.2317 127.555C76.4367 127.555 88.7628 122.445 88.7628 116.142C88.7628 109.838 76.4367 104.729 61.2317 104.729C46.0267 104.729 33.7007 109.838 33.7007 116.142C33.7007 122.445 46.0267 127.555 61.2317 127.555Z" fill="#FDDB3A"/>
<g style="mix-blend-mode:multiply">
<path d="M61.2022 123.993C54.9176 123.993 48.9409 123.023 44.3757 121.263C42.3706 120.49 40.7399 119.606 39.5197 118.622C39.2094 118.376 38.9517 118.017 38.7734 117.583C38.5951 117.149 38.5027 116.655 38.5059 116.154C38.5039 115.645 38.5986 115.145 38.7803 114.705C38.962 114.266 39.2239 113.903 39.539 113.654C40.7249 112.705 42.3011 111.847 44.226 111.093C48.696 109.339 54.5786 108.349 60.7927 108.306C67.2388 108.256 73.376 109.235 78.0448 111.035C80.036 111.803 81.6614 112.691 82.8762 113.655C83.1905 113.904 83.452 114.266 83.634 114.705C83.816 115.143 83.9119 115.642 83.9119 116.149C83.9119 116.657 83.816 117.156 83.634 117.594C83.452 118.032 83.1905 118.395 82.8762 118.643C81.6914 119.592 80.1151 120.451 78.1892 121.213C73.7192 122.966 67.8366 123.957 61.6236 123.999L61.2022 123.993ZM61.2194 109.718H60.7916C54.6663 109.761 48.8767 110.732 44.4912 112.453C42.6465 113.178 41.1462 113.997 40.033 114.887C39.8736 115.014 39.741 115.198 39.6489 115.42C39.5568 115.643 39.5085 115.896 39.509 116.154C39.5074 116.404 39.5534 116.651 39.6424 116.867C39.7314 117.084 39.86 117.263 40.0148 117.386C41.158 118.306 42.7128 119.148 44.6366 119.89C49.2189 121.659 55.2619 122.621 61.6182 122.568C67.7447 122.526 73.5331 121.555 77.9186 119.835C79.7644 119.11 81.2647 118.291 82.3768 117.399C82.5355 117.274 82.6676 117.091 82.7595 116.87C82.8515 116.648 82.8999 116.397 82.8999 116.14C82.8999 115.884 82.8515 115.632 82.7595 115.411C82.6676 115.19 82.5355 115.007 82.3768 114.881C81.2348 113.978 79.6874 113.133 77.7786 112.396C73.2979 110.67 67.4164 109.718 61.2194 109.718Z" fill="#FDDB3A"/>
</g>
<path d="M29.4512 33.4664C29.4512 31.9272 24.746 30.65 18.5769 30.403C18.4026 21.719 17.4957 15.0923 16.4029 15.0923C15.31 15.0923 14.4032 21.719 14.2267 30.406C8.05755 30.653 3.35449 31.9302 3.35449 33.4664C3.35449 35.0026 8.05969 36.2812 14.2288 36.5282C14.4032 45.2228 15.31 51.8405 16.4029 51.8405C17.4957 51.8405 18.4026 45.2138 18.5769 36.5267C24.7482 36.2842 29.4512 35.0071 29.4512 33.4664Z" fill="#FDDB3A"/>
<path d="M50.4148 7.59045C50.4148 6.98803 48.583 6.49403 46.1801 6.39764C46.1117 3.01349 45.7588 0.433594 45.3332 0.433594C44.9075 0.433594 44.5546 3.01349 44.4862 6.39764C42.0833 6.49403 40.2515 6.99104 40.2515 7.59045C40.2515 8.18987 42.0833 8.68687 44.4862 8.78326C44.5546 12.1674 44.9075 14.7473 45.3332 14.7473C45.7588 14.7473 46.1117 12.1674 46.1801 8.78326C48.583 8.68687 50.4148 8.18987 50.4148 7.59045Z" fill="#FDDB3A"/>
<path d="M67.5091 48.2819C67.5091 47.2276 64.301 46.3601 60.092 46.193C59.9722 40.2651 59.3541 35.7468 58.6088 35.7468C57.8634 35.7468 57.2453 40.2651 57.1256 46.193C52.9166 46.3601 49.7085 47.2321 49.7085 48.2819C49.7085 49.3316 52.9166 50.2021 57.1256 50.3693C57.2453 56.2987 57.8634 60.8154 58.6088 60.8154C59.3541 60.8154 59.9722 56.2972 60.092 50.3693C64.301 50.2021 67.5091 49.3241 67.5091 48.2819Z" fill="#FDDB3A"/>
<path d="M174 64.2861C174 63.3177 171.038 62.5135 167.156 62.3584C167.049 56.8838 166.475 52.7195 165.786 52.7195C165.097 52.7195 164.527 56.8913 164.417 62.3584C160.53 62.509 157.573 63.3177 157.573 64.2861C157.573 65.2545 160.535 66.0603 164.417 66.2154C164.524 71.6885 165.098 75.8543 165.786 75.8543C166.474 75.8543 167.046 71.6825 167.156 66.2154C171.04 66.0588 174 65.256 174 64.2861Z" fill="#FDDB3A"/>
<path d="M146.109 18.7219C146.109 17.2279 141.54 15.9869 135.544 15.7474C135.374 7.30285 134.493 0.868896 133.432 0.868896C132.372 0.868896 131.489 7.30285 131.319 15.7474C125.323 15.9869 120.755 17.2279 120.755 18.7219C120.755 20.2159 125.323 21.4585 131.319 21.6979C131.489 30.141 132.371 36.5765 133.432 36.5765C134.494 36.5765 135.374 30.141 135.544 21.6979C141.54 21.4585 146.109 20.2175 146.109 18.7219Z" fill="#FDDB3A"/>
</svg>
